<svg width="147" height="79" viewBox="0 0 147 79" fill="none" xmlns="http://www.w3.org/2000/svg">
<rect width="147" height="79" fill="#1E1E1E"/>
<g id="Opening Screen">
<rect x="-142" y="-387" width="430" height="932" rx="15" fill="white"/>
<path id="Vector" d="M73.4823 22.1852C73.5384 22.2887 73.6212 22.3753 73.7223 22.4366C73.8235 22.4979 73.9396 22.5316 74.0593 22.5346C74.1789 22.5376 74.298 22.5096 74.4047 22.4535C74.5114 22.3974 74.602 22.315 74.6678 22.2146C80.0617 13.8905 87.8118 6.81428 96.9844 3.0266C118.19 -5.75261 141.899 7.16663 146.108 29.9808C154.688 76.6222 99.1775 98.5555 74.5047 56.935C74.4137 56.784 74.2855 56.6583 74.1322 56.5696C73.9789 56.4809 73.8054 56.4321 73.6279 56.4277C73.4504 56.4233 73.2747 56.4635 73.1171 56.5445C72.9594 56.6255 72.8251 56.7447 72.7265 56.891C51.6694 87.6623 12.8302 85.4748 1.46438 48.5816C0.150475 44.3143 -0.279261 40.2232 0.175173 36.3083C4.97637 -4.54877 53.581 -13.2546 73.4823 22.1852ZM61.4941 37.6883C56.3521 27.8521 46.5867 17.4139 33.991 21.5246C12.6672 28.498 22.4029 65.2151 45.8902 56.1423C52.4993 53.5878 58.1155 46.5262 61.4793 40.1547C61.6846 39.7749 61.7934 39.3515 61.7959 38.9216C61.7985 38.4917 61.6949 38.0683 61.4941 37.6883ZM109.995 21.5393C99.5332 20.4969 90.7606 30.2304 86.0928 38.7307C85.983 38.9299 85.923 39.1514 85.9178 39.3764C85.9127 39.6013 85.9625 39.823 86.0632 40.0226C89.6492 47.275 96.9992 55.7165 105.12 57.8452C127.422 63.6883 135.394 24.0497 109.995 21.5393Z" fill="#F15E31"/>
</g>
</svg>
